<svg width="36" height="40" viewBox="0 0 36 40" fill="none" xmlns="http://www.w3.org/2000/svg">
<path d="M11.464 14.136C12.648 14.136 13.5387 14.6107 14.136 15.56C14.744 16.4987 15.048 17.864 15.048 19.656C15.048 21.448 14.744 22.8187 14.136 23.768C13.5387 24.7173 12.648 25.192 11.464 25.192C10.28 25.192 9.384 24.7173 8.776 23.768C8.17867 22.8187 7.88 21.448 7.88 19.656C7.88 17.864 8.17867 16.4987 8.776 15.56C9.384 14.6107 10.28 14.136 11.464 14.136ZM11.464 15.304C10.7707 15.304 10.2533 15.6453 9.912 16.328C9.58133 17.0107 9.416 18.12 9.416 19.656C9.416 21.192 9.58133 22.3067 9.912 23C10.2533 23.6827 10.7707 24.024 11.464 24.024C12.1467 24.024 12.6587 23.6827 13 23C13.3413 22.3067 13.512 21.192 13.512 19.656C13.512 18.1307 13.3413 17.0267 13 16.344C12.6587 15.6507 12.1467 15.304 11.464 15.304ZM17.6384 22.968C17.9584 22.968 18.225 23.0747 18.4384 23.288C18.6517 23.5013 18.7584 23.7627 18.7584 24.072C18.7584 24.4027 18.6624 24.7813 18.4704 25.208L17.3984 27.656H16.3424L16.9824 25C16.8437 24.8933 16.7317 24.76 16.6464 24.6C16.5717 24.44 16.5344 24.264 16.5344 24.072C16.5344 23.7627 16.641 23.5013 16.8544 23.288C17.0677 23.0747 17.329 22.968 17.6384 22.968ZM26.4544 15.448H22.2784V18.6C22.8224 18.3227 23.393 18.184 23.9904 18.184C24.9077 18.184 25.6437 18.488 26.1984 19.096C26.753 19.6933 27.0304 20.52 27.0304 21.576C27.0304 22.28 26.8757 22.9093 26.5664 23.464C26.257 24.008 25.8197 24.4347 25.2544 24.744C24.6997 25.0427 24.0544 25.192 23.3184 25.192C22.6677 25.192 22.0864 25.08 21.5744 24.856C21.0624 24.6213 20.5877 24.28 20.1504 23.832L21.0144 22.984C21.3557 23.3253 21.7077 23.5813 22.0704 23.752C22.433 23.912 22.8437 23.992 23.3024 23.992C23.985 23.992 24.5184 23.7787 24.9024 23.352C25.297 22.9253 25.4944 22.3227 25.4944 21.544C25.4944 20.7653 25.3184 20.2 24.9664 19.848C24.6144 19.496 24.1397 19.32 23.5424 19.32C23.265 19.32 23.009 19.352 22.7744 19.416C22.5397 19.4693 22.289 19.56 22.0224 19.688H20.8704V14.296H26.6624L26.4544 15.448Z" fill="black"/>
<rect x="0.5" y="5.5" width="35" height="31" rx="4.5" stroke="black"/>
</svg>
