<svg width="36" height="40" viewBox="0 0 36 40" fill="none" xmlns="http://www.w3.org/2000/svg">
<path d="M11.648 14.136C12.288 14.136 12.848 14.264 13.328 14.52C13.8187 14.776 14.1973 15.128 14.464 15.576C14.7307 16.0133 14.864 16.5093 14.864 17.064C14.864 17.7147 14.7147 18.3387 14.416 18.936C14.128 19.5333 13.68 20.1787 13.072 20.872C12.464 21.5653 11.5413 22.5307 10.304 23.768H15.12L14.944 25H8.624V23.832C10.0533 22.3493 11.0667 21.2667 11.664 20.584C12.2613 19.8907 12.688 19.288 12.944 18.776C13.2 18.264 13.328 17.7147 13.328 17.128C13.328 16.5733 13.168 16.1413 12.848 15.832C12.528 15.512 12.1013 15.352 11.568 15.352C11.1307 15.352 10.7467 15.4427 10.416 15.624C10.0853 15.8053 9.73333 16.104 9.36 16.52L8.4 15.752C8.83733 15.208 9.32267 14.8027 9.856 14.536C10.3893 14.2693 10.9867 14.136 11.648 14.136ZM17.8259 22.968C18.1459 22.968 18.4125 23.0747 18.6259 23.288C18.8392 23.5013 18.9459 23.7627 18.9459 24.072C18.9459 24.4027 18.8499 24.7813 18.6579 25.208L17.5859 27.656H16.5299L17.1699 25C17.0312 24.8933 16.9192 24.76 16.8339 24.6C16.7592 24.44 16.7219 24.264 16.7219 24.072C16.7219 23.7627 16.8285 23.5013 17.0419 23.288C17.2552 23.0747 17.5165 22.968 17.8259 22.968ZM26.6419 15.448H22.4659V18.6C23.0099 18.3227 23.5805 18.184 24.1779 18.184C25.0952 18.184 25.8312 18.488 26.3859 19.096C26.9405 19.6933 27.2179 20.52 27.2179 21.576C27.2179 22.28 27.0632 22.9093 26.7539 23.464C26.4445 24.008 26.0072 24.4347 25.4419 24.744C24.8872 25.0427 24.2419 25.192 23.5059 25.192C22.8552 25.192 22.2739 25.08 21.7619 24.856C21.2499 24.6213 20.7752 24.28 20.3379 23.832L21.2019 22.984C21.5432 23.3253 21.8952 23.5813 22.2579 23.752C22.6205 23.912 23.0312 23.992 23.4899 23.992C24.1725 23.992 24.7059 23.7787 25.0899 23.352C25.4845 22.9253 25.6819 22.3227 25.6819 21.544C25.6819 20.7653 25.5059 20.2 25.1539 19.848C24.8019 19.496 24.3272 19.32 23.7299 19.32C23.4525 19.32 23.1965 19.352 22.9619 19.416C22.7272 19.4693 22.4765 19.56 22.2099 19.688H21.0579V14.296H26.8499L26.6419 15.448Z" fill="black"/>
<rect x="0.5" y="5.5" width="35" height="31" rx="4.5" stroke="black"/>
</svg>
