<svg width="36" height="40" viewBox="0 0 36 40" fill="none" xmlns="http://www.w3.org/2000/svg">
<path d="M13.168 25H11.696V15.864L9.2 17.384L8.56 16.344L11.872 14.296H13.168V25ZM16.8259 22.968C17.1459 22.968 17.4125 23.0747 17.6259 23.288C17.8392 23.5013 17.9459 23.7627 17.9459 24.072C17.9459 24.4027 17.8499 24.7813 17.6579 25.208L16.5859 27.656H15.5299L16.1699 25C16.0312 24.8933 15.9192 24.76 15.8339 24.6C15.7592 24.44 15.7219 24.264 15.7219 24.072C15.7219 23.7627 15.8285 23.5013 16.0419 23.288C16.2552 23.0747 16.5165 22.968 16.8259 22.968ZM23.0421 14.136C24.2261 14.136 25.1168 14.6107 25.7141 15.56C26.3221 16.4987 26.6261 17.864 26.6261 19.656C26.6261 21.448 26.3221 22.8187 25.7141 23.768C25.1168 24.7173 24.2261 25.192 23.0421 25.192C21.8581 25.192 20.9621 24.7173 20.3541 23.768C19.7568 22.8187 19.4581 21.448 19.4581 19.656C19.4581 17.864 19.7568 16.4987 20.3541 15.56C20.9621 14.6107 21.8581 14.136 23.0421 14.136ZM23.0421 15.304C22.3488 15.304 21.8315 15.6453 21.4901 16.328C21.1595 17.0107 20.9941 18.12 20.9941 19.656C20.9941 21.192 21.1595 22.3067 21.4901 23C21.8315 23.6827 22.3488 24.024 23.0421 24.024C23.7248 24.024 24.2368 23.6827 24.5781 23C24.9195 22.3067 25.0901 21.192 25.0901 19.656C25.0901 18.1307 24.9195 17.0267 24.5781 16.344C24.2368 15.6507 23.7248 15.304 23.0421 15.304Z" fill="black"/>
<rect x="0.5" y="5.5" width="35" height="31" rx="4.5" stroke="black"/>
</svg>
