<svg width="36" height="40" viewBox="0 0 36 40" fill="none" xmlns="http://www.w3.org/2000/svg">
<rect x="0.5" y="5.5" width="35" height="31" rx="4.5" fill="#5EBB73" stroke="black"/>
<path d="M11.648 14.136C12.288 14.136 12.848 14.264 13.328 14.52C13.8187 14.776 14.1973 15.128 14.464 15.576C14.7307 16.0133 14.864 16.5093 14.864 17.064C14.864 17.7147 14.7147 18.3387 14.416 18.936C14.128 19.5333 13.68 20.1787 13.072 20.872C12.464 21.5653 11.5413 22.5307 10.304 23.768H15.12L14.944 25H8.624V23.832C10.0533 22.3493 11.0667 21.2667 11.664 20.584C12.2613 19.8907 12.688 19.288 12.944 18.776C13.2 18.264 13.328 17.7147 13.328 17.128C13.328 16.5733 13.168 16.1413 12.848 15.832C12.528 15.512 12.1013 15.352 11.568 15.352C11.1307 15.352 10.7467 15.4427 10.416 15.624C10.0853 15.8053 9.73333 16.104 9.36 16.52L8.4 15.752C8.83733 15.208 9.32267 14.8027 9.856 14.536C10.3893 14.2693 10.9867 14.136 11.648 14.136ZM17.8259 22.968C18.1459 22.968 18.4125 23.0747 18.6259 23.288C18.8392 23.5013 18.9459 23.7627 18.9459 24.072C18.9459 24.4027 18.8499 24.7813 18.6579 25.208L17.5859 27.656H16.5299L17.1699 25C17.0312 24.8933 16.9192 24.76 16.8339 24.6C16.7592 24.44 16.7219 24.264 16.7219 24.072C16.7219 23.7627 16.8285 23.5013 17.0419 23.288C17.2552 23.0747 17.5165 22.968 17.8259 22.968ZM24.0421 14.136C25.2261 14.136 26.1168 14.6107 26.7141 15.56C27.3221 16.4987 27.6261 17.864 27.6261 19.656C27.6261 21.448 27.3221 22.8187 26.7141 23.768C26.1168 24.7173 25.2261 25.192 24.0421 25.192C22.8581 25.192 21.9621 24.7173 21.3541 23.768C20.7568 22.8187 20.4581 21.448 20.4581 19.656C20.4581 17.864 20.7568 16.4987 21.3541 15.56C21.9621 14.6107 22.8581 14.136 24.0421 14.136ZM24.0421 15.304C23.3488 15.304 22.8315 15.6453 22.4901 16.328C22.1595 17.0107 21.9941 18.12 21.9941 19.656C21.9941 21.192 22.1595 22.3067 22.4901 23C22.8315 23.6827 23.3488 24.024 24.0421 24.024C24.7248 24.024 25.2368 23.6827 25.5781 23C25.9195 22.3067 26.0901 21.192 26.0901 19.656C26.0901 18.1307 25.9195 17.0267 25.5781 16.344C25.2368 15.6507 24.7248 15.304 24.0421 15.304Z" fill="white"/>
</svg>
