<svg width="107" height="83" viewBox="0 0 107 83" fill="none" xmlns="http://www.w3.org/2000/svg">
<path d="M9.6 47.02C9.48 47.54 9.5 48.01 9.66 48.43C9.82 48.83 10.05 49.17 10.35 49.45C10.67 49.73 11.04 49.94 11.46 50.08C11.88 50.22 12.3 50.29 12.72 50.29C13.24 50.29 13.71 50.18 14.13 49.96C14.57 49.72 14.86 49.36 15 48.88C15.18 48.34 15.22 47.88 15.12 47.5C15.04 47.12 14.87 46.79 14.61 46.51C14.37 46.21 14.06 45.95 13.68 45.73C13.32 45.51 12.95 45.29 12.57 45.07C12.19 44.83 11.83 44.58 11.49 44.32C11.17 44.04 10.92 43.72 10.74 43.36C10.58 43.08 10.49 42.8 10.47 42.52C10.47 42.24 10.5 41.96 10.56 41.68C10.64 41.36 10.76 41.05 10.92 40.75C11.08 40.43 11.25 40.15 11.43 39.91C11.63 39.67 11.84 39.48 12.06 39.34C12.3 39.2 12.54 39.14 12.78 39.16C13.06 39.18 13.24 39.25 13.32 39.37C13.4 39.47 13.42 39.6 13.38 39.76C13.34 39.92 13.25 40.09 13.11 40.27C12.99 40.43 12.86 40.58 12.72 40.72C12.48 40.9 12.24 41.12 12 41.38C11.76 41.62 11.7 41.94 11.82 42.34C11.86 42.52 11.95 42.67 12.09 42.79C12.23 42.91 12.39 43.01 12.57 43.09C12.75 43.17 12.92 43.24 13.08 43.3C13.26 43.36 13.4 43.42 13.5 43.48C13.88 43.68 14.23 43.9 14.55 44.14C14.89 44.36 15.18 44.63 15.42 44.95C15.68 45.25 15.88 45.62 16.02 46.06C16.16 46.48 16.22 46.98 16.2 47.56C16.24 48.26 16.15 48.9 15.93 49.48C15.71 50.04 15.34 50.56 14.82 51.04C14.5 51.36 14.11 51.6 13.65 51.76C13.21 51.9 12.75 51.97 12.27 51.97C11.49 51.97 10.74 51.8 10.02 51.46C10.02 51.96 10.02 52.45 10.02 52.93C10.02 53.41 10.02 53.94 10.02 54.52C10.02 55.1 10.01 55.74 9.99 56.44C9.99 57.16 9.99 58 9.99 58.96C10.01 59.94 10.02 61.06 10.02 62.32C10.04 63.6 10.06 65.08 10.08 66.76C10.1 68.84 10.13 70.81 10.17 72.67C10.21 74.53 10.16 76.16 10.02 77.56C9.9 78.98 9.65 80.11 9.27 80.95C8.89 81.79 8.3 82.22 7.5 82.24C6.98 82.28 6.56 82 6.24 81.4C5.92 80.8 5.67 79.98 5.49 78.94C5.33 77.92 5.22 76.73 5.16 75.37C5.12 74.03 5.1 72.62 5.1 71.14C5.12 69.68 5.14 68.21 5.16 66.73C5.2 65.27 5.22 63.9 5.22 62.62C5.22 62.1 5.22 61.47 5.22 60.73C5.24 60.01 5.24 59.24 5.22 58.42C5.2 57.6 5.16 56.76 5.1 55.9C5.06 55.06 4.98 54.27 4.86 53.53C4.76 52.79 4.61 52.13 4.41 51.55C4.23 50.97 4 50.54 3.72 50.26C3.58 50.12 3.43 50.05 3.27 50.05C3.11 50.05 2.95 50.11 2.79 50.23C2.65 50.35 2.5 50.48 2.34 50.62C2.2 50.76 2.06 50.89 1.92 51.01C1.78 51.13 1.64 51.19 1.5 51.19C1.4 51.19 1.3 51.14 1.2 51.04C1.18 51.02 1.15 50.95 1.11 50.83C1.07 50.69 1.06 50.52 1.08 50.32C1.12 50.12 1.2 49.91 1.32 49.69C1.44 49.47 1.66 49.26 1.98 49.06C2.44 48.78 2.83 48.35 3.15 47.77C3.47 47.17 3.67 46.55 3.75 45.91C3.85 45.27 3.8 44.66 3.6 44.08C3.42 43.5 3.06 43.08 2.52 42.82C2.08 42.74 1.73 42.76 1.47 42.88C1.21 43 1 43.08 0.84 43.12C0.8 43 0.79 42.84 0.81 42.64C0.85 42.42 0.92 42.22 1.02 42.04C1.12 41.84 1.27 41.67 1.47 41.53C1.67 41.39 1.93 41.32 2.25 41.32C2.61 41.32 3.02 41.42 3.48 41.62C4.1 41.96 4.51 42.42 4.71 43C4.93 43.58 5.03 44.19 5.01 44.83C4.99 45.47 4.91 46.11 4.77 46.75C4.63 47.37 4.52 47.9 4.44 48.34C4.4 48.48 4.4 48.6 4.44 48.7C4.48 48.78 4.54 48.87 4.62 48.97C4.72 49.05 4.84 49.17 4.98 49.33C5.14 49.47 5.32 49.68 5.52 49.96C5.8 50.32 6.01 50.84 6.15 51.52C6.29 52.2 6.39 52.98 6.45 53.86C6.51 54.74 6.53 55.68 6.51 56.68C6.51 57.7 6.5 58.72 6.48 59.74C6.44 61.08 6.41 62.52 6.39 64.06C6.39 65.6 6.4 67.14 6.42 68.68C6.46 70.22 6.5 71.7 6.54 73.12C6.6 74.54 6.68 75.8 6.78 76.9C6.88 78 7 78.87 7.14 79.51C7.28 80.17 7.44 80.5 7.62 80.5C8 80.48 8.3 80.22 8.52 79.72C8.74 79.22 8.91 78.57 9.03 77.77C9.15 76.97 9.22 76.07 9.24 75.07C9.28 74.09 9.3 73.1 9.3 72.1C9.3 71.1 9.29 70.15 9.27 69.25C9.27 68.35 9.28 67.6 9.3 67C9.3 65.62 9.29 64.21 9.27 62.77C9.27 61.35 9.26 59.94 9.24 58.54C9.22 57.16 9.2 55.82 9.18 54.52C9.18 53.24 9.18 52.04 9.18 50.92C8.82 50.62 8.58 50.26 8.46 49.84C8.34 49.54 8.26 49.2 8.22 48.82C8.2 48.44 8.23 48.08 8.31 47.74C8.41 47.38 8.56 47.07 8.76 46.81C8.98 46.55 9.28 46.4 9.66 46.36C9.76 46.34 9.81 46.36 9.81 46.42C9.83 46.48 9.82 46.55 9.78 46.63C9.76 46.71 9.73 46.79 9.69 46.87C9.65 46.95 9.62 47 9.6 47.02ZM43.1505 3.16C43.0905 3.22 43.1305 3.19 43.2705 3.07C43.4105 2.95 43.6105 2.79 43.8705 2.59C44.1305 2.39 44.4305 2.16 44.7705 1.9C45.1305 1.64 45.4805 1.4 45.8205 1.18C46.1605 0.959998 46.4805 0.779998 46.7805 0.639996C47.0805 0.479998 47.3105 0.399999 47.4705 0.399999C47.6305 0.399999 47.7105 0.459998 47.7105 0.579997C47.7905 1.88 47.5605 3.31 47.0205 4.87C46.5005 6.41 45.6905 8.07 44.5905 9.85C43.5105 11.61 42.1705 13.47 40.5705 15.43C38.9705 17.39 37.1305 19.44 35.0505 21.58C33.8305 22.82 32.5805 24.04 31.3005 25.24C30.0205 26.44 28.7705 27.67 27.5505 28.93C26.3305 30.19 25.1805 31.51 24.1005 32.89C23.0405 34.27 22.1105 35.76 21.3105 37.36C20.9905 37.98 20.7105 38.68 20.4705 39.46C20.2505 40.24 20.0705 40.98 19.9305 41.68C19.8105 42.38 19.7105 42.98 19.6305 43.48C19.5705 43.98 19.5305 44.26 19.5105 44.32C20.0905 43.36 20.7205 42.65 21.4005 42.19C22.0805 41.73 22.7605 41.5 23.4405 41.5C23.9005 41.5 24.3305 41.6 24.7305 41.8C25.1905 41.98 25.5405 42.22 25.7805 42.52C26.0205 42.8 26.2905 43.14 26.5905 43.54C26.9905 43.04 27.4505 42.58 27.9705 42.16C28.5105 41.74 29.1205 41.53 29.8005 41.53C30.3605 41.53 30.8905 41.7 31.3905 42.04C32.1505 42.58 32.7005 43.3 33.0405 44.2C33.4005 45.1 33.4705 46.24 33.2505 47.62C33.1505 48.24 32.9605 48.78 32.6805 49.24C32.4005 49.7 32.0805 50.1 31.7205 50.44C31.3605 50.76 30.9805 51.03 30.5805 51.25C30.1805 51.45 29.8105 51.62 29.4705 51.76C29.1705 51.88 28.9505 51.94 28.8105 51.94C28.4505 51.94 28.5905 51.66 29.2305 51.1C29.3505 51.02 29.5905 50.83 29.9505 50.53C30.3105 50.21 30.6505 49.78 30.9705 49.24C31.3105 48.68 31.5505 48.01 31.6905 47.23C31.8505 46.45 31.7705 45.56 31.4505 44.56C31.2705 43.98 31.0005 43.57 30.6405 43.33C30.2805 43.09 29.9005 42.97 29.5005 42.97C29.2005 42.97 28.9005 43.03 28.6005 43.15C28.3205 43.25 28.0605 43.4 27.8205 43.6C27.6005 43.8 27.4205 44.02 27.2805 44.26C27.1605 44.5 27.1105 44.76 27.1305 45.04C27.2505 45.88 27.1705 46.52 26.8905 46.96C26.6105 47.38 26.2905 47.5 25.9305 47.32C25.6905 47.2 25.5005 47.01 25.3605 46.75C25.2205 46.49 25.2305 46 25.3905 45.28C25.4105 45.08 25.3805 44.85 25.3005 44.59C25.2205 44.33 25.1105 44.08 24.9705 43.84C24.8305 43.6 24.6605 43.39 24.4605 43.21C24.2805 43.03 24.0905 42.92 23.8905 42.88C23.5705 42.8 23.2105 42.83 22.8105 42.97C22.4305 43.09 22.0705 43.29 21.7305 43.57C21.4105 43.83 21.1405 44.14 20.9205 44.5C20.7205 44.86 20.6305 45.24 20.6505 45.64C20.6705 46.08 20.7505 46.48 20.8905 46.84C21.0505 47.2 21.2205 47.54 21.4005 47.86C21.5805 48.18 21.7505 48.48 21.9105 48.76C22.0705 49.04 22.1705 49.32 22.2105 49.6C22.3705 50.24 22.3705 50.83 22.2105 51.37C22.0705 51.91 21.6705 52.38 21.0105 52.78C20.8705 52.86 20.7305 52.9 20.5905 52.9C20.3905 52.9 20.2605 52.83 20.2005 52.69C20.1605 52.55 20.2505 52.44 20.4705 52.36C20.7105 52.22 20.8605 52.03 20.9205 51.79C20.9805 51.53 20.9805 51.25 20.9205 50.95C20.8605 50.65 20.7505 50.34 20.5905 50.02C20.4305 49.68 20.2505 49.36 20.0505 49.06C19.3305 48.1 18.8305 47.13 18.5505 46.15C18.2905 45.15 18.1805 44.16 18.2205 43.18C18.2605 42.18 18.4305 41.19 18.7305 40.21C19.0505 39.23 19.4305 38.26 19.8705 37.3C20.3905 36.18 21.1405 34.98 22.1205 33.7C23.1005 32.42 24.2105 31.1 25.4505 29.74C26.7105 28.36 28.0505 26.95 29.4705 25.51C30.9105 24.07 32.3405 22.62 33.7605 21.16C35.2005 19.7 36.5905 18.25 37.9305 16.81C39.2705 15.37 40.4705 13.96 41.5305 12.58C42.5905 11.2 43.4705 9.87 44.1705 8.59C44.8905 7.29 45.3305 6.06 45.4905 4.9C45.5305 4.6 45.5605 4.33 45.5805 4.09C45.6005 3.83 45.5905 3.6 45.5505 3.4C45.5305 3.2 45.4605 3.05 45.3405 2.95C45.2205 2.83 45.0305 2.77 44.7705 2.77C44.4105 2.77 43.8705 2.9 43.1505 3.16ZM36.9729 43.54C37.5529 42.98 38.2529 42.49 39.0729 42.07C39.8929 41.63 40.7029 41.41 41.5029 41.41C42.0429 41.41 42.5429 41.54 43.0029 41.8C43.4629 42.06 43.8529 42.5 44.1729 43.12C44.3729 43.52 44.4729 44.02 44.4729 44.62C44.4729 45.2 44.3929 45.82 44.2329 46.48C44.0929 47.14 43.8829 47.8 43.6029 48.46C43.3229 49.1 42.9929 49.68 42.6129 50.2C42.2329 50.72 41.8129 51.15 41.3529 51.49C40.9129 51.81 40.4429 51.97 39.9429 51.97C39.6029 51.97 39.2529 51.88 38.8929 51.7C38.4129 51.46 38.0029 51.12 37.6629 50.68C37.3229 50.24 37.0329 49.77 36.7929 49.27C36.5729 48.75 36.3929 48.24 36.2529 47.74C36.1329 47.22 36.0329 46.78 35.9529 46.42C35.6529 45 35.5929 43.55 35.7729 42.07C35.9729 40.57 36.3829 39.17 37.0029 37.87C37.6229 36.57 38.4329 35.44 39.4329 34.48C40.4329 33.5 41.5929 32.82 42.9129 32.44C43.7329 32.18 44.5329 32.02 45.3129 31.96C46.1129 31.9 46.8829 31.87 47.6229 31.87C48.4629 31.87 49.2429 31.88 49.9629 31.9C50.7029 31.9 51.3929 31.82 52.0329 31.66C52.9929 31.42 53.7329 31.13 54.2529 30.79C54.7929 30.45 55.1729 29.98 55.3929 29.38C55.4929 29.1 55.5329 28.83 55.5129 28.57C55.5129 28.29 55.4929 28.06 55.4529 27.88C55.4329 27.68 55.4229 27.55 55.4229 27.49C55.4429 27.43 55.5329 27.48 55.6929 27.64C55.9129 27.86 56.0529 28.14 56.1129 28.48C56.1729 28.82 56.1729 29.17 56.1129 29.53C56.0529 29.89 55.9429 30.24 55.7829 30.58C55.6229 30.92 55.4329 31.2 55.2129 31.42C54.6729 31.94 54.0529 32.35 53.3529 32.65C52.6729 32.93 51.9529 33.15 51.1929 33.31C50.4329 33.47 49.6529 33.58 48.8529 33.64C48.0729 33.68 47.3029 33.72 46.5429 33.76C45.8029 33.8 45.1029 33.85 44.4429 33.91C43.8029 33.97 43.2329 34.08 42.7329 34.24C41.8329 34.56 41.0329 35.04 40.3329 35.68C39.6329 36.32 39.0329 37.06 38.5329 37.9C38.0529 38.74 37.6829 39.65 37.4229 40.63C37.1629 41.59 37.0129 42.56 36.9729 43.54ZM38.8329 49.66C39.1929 50.08 39.5929 50.29 40.0329 50.29C40.3329 50.29 40.6129 50.2 40.8729 50.02C41.1529 49.82 41.4029 49.58 41.6229 49.3C41.8629 49.02 42.0729 48.72 42.2529 48.4C42.4329 48.08 42.5729 47.8 42.6729 47.56C42.8129 47.24 42.9229 46.91 43.0029 46.57C43.0829 46.23 43.1229 45.9 43.1229 45.58C43.1429 45.26 43.1129 44.96 43.0329 44.68C42.9529 44.4 42.8129 44.16 42.6129 43.96C42.2729 43.64 41.9229 43.42 41.5629 43.3C41.2029 43.16 40.8329 43.09 40.4529 43.09C39.7529 43.09 39.0929 43.26 38.4729 43.6C37.8529 43.94 37.3529 44.34 36.9729 44.8C37.0329 45.76 37.2129 46.66 37.5129 47.5C37.8129 48.34 38.2529 49.06 38.8329 49.66ZM67.815 35.86C67.795 36.08 67.705 36.22 67.545 36.28C67.385 36.34 67.195 36.4 66.975 36.46C66.755 36.52 66.535 36.62 66.315 36.76C66.095 36.88 65.915 37.12 65.775 37.48C65.635 37.86 65.585 38.23 65.625 38.59C65.665 38.95 65.765 39.31 65.925 39.67C66.085 40.01 66.295 40.37 66.555 40.75C66.835 41.11 67.135 41.5 67.455 41.92C67.915 42.32 68.275 42.92 68.535 43.72C68.815 44.5 68.935 45.58 68.895 46.96C68.895 47.72 68.755 48.41 68.475 49.03C68.215 49.63 67.795 50.26 67.215 50.92C66.755 51.3 66.275 51.6 65.775 51.82C65.275 52.04 64.775 52.15 64.275 52.15C63.675 52.15 63.105 51.97 62.565 51.61C62.025 51.25 61.555 50.66 61.155 49.84C60.915 49.34 60.755 48.84 60.675 48.34C60.595 47.84 60.565 47.3 60.585 46.72C60.605 46.14 60.645 45.5 60.705 44.8C60.765 44.1 60.815 43.3 60.855 42.4C60.935 40.88 61.035 39.26 61.155 37.54C61.275 35.82 61.385 34.15 61.485 32.53C61.605 30.89 61.705 29.38 61.785 28C61.885 26.6 61.955 25.48 61.995 24.64C62.055 23.56 62.095 22.53 62.115 21.55C62.155 20.57 62.195 19.6 62.235 18.64C61.595 19.18 60.965 19.62 60.345 19.96C59.725 20.3 59.115 20.56 58.515 20.74C57.595 21.32 56.865 22.03 56.325 22.87C55.785 23.69 55.385 24.61 55.125 25.63C54.865 26.63 54.725 27.71 54.705 28.87C54.685 30.01 54.725 31.19 54.825 32.41C54.925 33.63 55.065 34.87 55.245 36.13C55.425 37.37 55.595 38.6 55.755 39.82C55.915 41.02 56.025 42.19 56.085 43.33C56.165 44.47 56.155 45.54 56.055 46.54C56.115 47.04 56.115 47.58 56.055 48.16C56.015 48.62 55.895 49.07 55.695 49.51C55.515 49.95 55.285 50.34 55.005 50.68C54.725 51.02 54.395 51.3 54.015 51.52C53.655 51.72 53.275 51.82 52.875 51.82C52.655 51.8 52.535 51.77 52.515 51.73C52.495 51.69 52.515 51.64 52.575 51.58C52.655 51.5 52.765 51.41 52.905 51.31C53.045 51.19 53.175 51.06 53.295 50.92C53.695 50.46 54.015 49.91 54.255 49.27C54.495 48.61 54.615 47.93 54.615 47.23C54.635 46.53 54.515 45.84 54.255 45.16C53.995 44.48 53.555 43.9 52.935 43.42C52.495 43.14 52.045 43 51.585 43C50.825 43 50.075 43.34 49.335 44.02C49.075 44.28 48.855 44.62 48.675 45.04C48.515 45.44 48.405 45.87 48.345 46.33C48.285 46.79 48.275 47.26 48.315 47.74C48.355 48.2 48.455 48.61 48.615 48.97C48.775 49.33 48.995 49.61 49.275 49.81C49.575 50.01 49.935 50.08 50.355 50.02C50.635 49.98 50.785 50.05 50.805 50.23C50.825 50.41 50.765 50.62 50.625 50.86C50.485 51.1 50.285 51.32 50.025 51.52C49.765 51.72 49.485 51.82 49.185 51.82C48.965 51.82 48.745 51.76 48.525 51.64C48.325 51.52 48.135 51.3 47.955 50.98C47.735 50.66 47.535 50.26 47.355 49.78C47.175 49.28 47.035 48.74 46.935 48.16C46.855 47.58 46.835 46.99 46.875 46.39C46.935 45.77 47.095 45.18 47.355 44.62C47.835 43.58 48.455 42.81 49.215 42.31C49.975 41.81 50.755 41.56 51.555 41.56C52.235 41.56 52.845 41.71 53.385 42.01C53.945 42.31 54.435 42.72 54.855 43.24C54.735 42.08 54.565 40.81 54.345 39.43C54.145 38.05 53.955 36.65 53.775 35.23C53.615 33.79 53.505 32.36 53.445 30.94C53.385 29.52 53.445 28.19 53.625 26.95C53.805 25.69 54.135 24.55 54.615 23.53C55.095 22.51 55.795 21.68 56.715 21.04C55.715 21.08 54.775 20.92 53.895 20.56C53.015 20.2 52.205 19.71 51.465 19.09C50.745 18.45 50.115 17.71 49.575 16.87C49.035 16.03 48.605 15.15 48.285 14.23C47.985 13.31 47.805 12.39 47.745 11.47C47.705 10.55 47.815 9.68 48.075 8.86C48.795 6.58 49.965 4.86 51.585 3.7C53.225 2.52 55.215 1.82 57.555 1.6C58.755 1.52 59.755 1.75 60.555 2.29C61.375 2.81 62.035 3.61 62.535 4.69C63.035 5.77 63.385 7.11 63.585 8.71C63.805 10.31 63.915 12.14 63.915 14.2C63.915 16.56 63.835 18.96 63.675 21.4C63.535 23.82 63.375 26.24 63.195 28.66C63.015 31.08 62.835 33.48 62.655 35.86C62.475 38.22 62.355 40.52 62.295 42.76C62.715 42.4 63.195 42.09 63.735 41.83C64.275 41.55 64.815 41.38 65.355 41.32C65.075 40.9 64.845 40.4 64.665 39.82C64.485 39.24 64.415 38.66 64.455 38.08C64.475 37.58 64.575 37.14 64.755 36.76C64.935 36.36 65.155 36.02 65.415 35.74C65.675 35.46 65.945 35.25 66.225 35.11C66.525 34.95 66.795 34.87 67.035 34.87C67.275 34.87 67.475 34.95 67.635 35.11C67.795 35.27 67.855 35.52 67.815 35.86ZM53.775 3.88C53.055 4.24 52.415 4.7 51.855 5.26C51.295 5.8 50.825 6.4 50.445 7.06C50.065 7.72 49.775 8.41 49.575 9.13C49.375 9.83 49.275 10.52 49.275 11.2C49.275 12.46 49.495 13.63 49.935 14.71C50.395 15.77 50.995 16.7 51.735 17.5C52.475 18.28 53.305 18.89 54.225 19.33C55.145 19.77 56.085 19.99 57.045 19.99C58.045 19.99 59.005 19.73 59.925 19.21C60.845 18.67 61.635 17.8 62.295 16.6C62.295 14.5 62.215 12.61 62.055 10.93C61.895 9.25 61.615 7.82 61.215 6.64C60.835 5.44 60.315 4.52 59.655 3.88C59.015 3.24 58.195 2.92 57.195 2.92C56.195 2.92 55.055 3.24 53.775 3.88ZM62.295 46.72C62.295 47.74 62.495 48.58 62.895 49.24C63.295 49.88 63.865 50.2 64.605 50.2C64.865 50.2 65.115 50.16 65.355 50.08C65.855 49.94 66.265 49.67 66.585 49.27C66.905 48.85 67.125 48.38 67.245 47.86C67.385 47.32 67.425 46.77 67.365 46.21C67.325 45.63 67.185 45.1 66.945 44.62C66.725 44.12 66.415 43.72 66.015 43.42C65.635 43.1 65.175 42.94 64.635 42.94C64.175 42.94 63.745 43.11 63.345 43.45C62.945 43.77 62.575 44.1 62.235 44.44C62.235 44.84 62.235 45.22 62.235 45.58C62.235 45.94 62.255 46.32 62.295 46.72ZM72.0063 48.94C71.5263 48.7 71.2163 48.35 71.0763 47.89C70.9563 47.43 70.9563 46.92 71.0763 46.36C71.1963 45.8 71.4163 45.23 71.7363 44.65C72.0563 44.05 72.4263 43.51 72.8463 43.03C73.2663 42.53 73.7063 42.13 74.1663 41.83C74.6463 41.51 75.1063 41.35 75.5463 41.35C75.7463 41.35 75.9663 41.4 76.2063 41.5C76.6663 41.72 77.0063 42.06 77.2263 42.52C77.4663 42.98 77.6363 43.48 77.7363 44.02C77.8363 44.56 77.8863 45.11 77.8863 45.67C77.9063 46.23 77.9263 46.72 77.9463 47.14C78.0063 47.88 78.0563 48.64 78.0963 49.42C78.1563 50.2 78.1963 50.94 78.2163 51.64C78.2563 52.34 78.2763 52.98 78.2763 53.56C78.2963 54.14 78.3063 54.6 78.3063 54.94C78.3063 55.68 78.2963 56.61 78.2763 57.73C78.2763 58.85 78.2663 60.07 78.2463 61.39C78.2463 62.73 78.2463 64.13 78.2463 65.59C78.2663 67.05 78.2863 68.49 78.3063 69.91C78.3263 71.33 78.3563 72.68 78.3963 73.96C78.4563 75.24 78.5363 76.36 78.6363 77.32C78.7363 78.3 78.8563 79.07 78.9963 79.63C79.1363 80.21 79.3063 80.5 79.5063 80.5C79.8663 80.48 80.1463 80.22 80.3463 79.72C80.5663 79.22 80.7263 78.58 80.8263 77.8C80.9463 77.02 81.0263 76.14 81.0663 75.16C81.1063 74.18 81.1263 73.2 81.1263 72.22C81.1263 71.24 81.1163 70.3 81.0963 69.4C81.0963 68.52 81.1063 67.78 81.1263 67.18C81.1063 66.4 81.0763 65.31 81.0363 63.91C80.9963 62.53 80.9563 60.95 80.9163 59.17C80.8763 57.41 80.8263 55.5 80.7663 53.44C80.7063 51.4 80.6463 49.34 80.5863 47.26C80.5463 45.16 80.4963 43.1 80.4363 41.08C80.3963 39.06 80.3563 37.19 80.3163 35.47C80.2763 33.73 80.2363 32.21 80.1963 30.91C80.1763 29.61 80.1663 28.63 80.1663 27.97C80.1063 27.13 80.0663 26.22 80.0463 25.24C80.0263 24.24 80.0063 23.3 79.9863 22.42C79.9863 21.52 79.9763 20.76 79.9563 20.14C79.9363 19.5 79.9063 19.14 79.8663 19.06C79.5863 18.52 79.4363 18.01 79.4163 17.53C79.4163 17.03 79.4763 16.59 79.5963 16.21C79.7163 15.83 79.8563 15.54 80.0163 15.34C80.1963 15.12 80.3263 15.02 80.4063 15.04C80.5063 15.06 80.5763 15.16 80.6163 15.34C80.6563 15.52 80.6863 15.72 80.7063 15.94C80.7463 16.16 80.7763 16.38 80.7963 16.6C80.8163 16.8 80.8463 16.94 80.8863 17.02C81.3463 18.58 81.8763 19.84 82.4763 20.8C83.0763 21.74 83.7063 22.52 84.3663 23.14C85.0263 23.76 85.6963 24.28 86.3763 24.7C87.0563 25.12 87.6963 25.58 88.2963 26.08C88.9163 26.56 89.4763 27.15 89.9763 27.85C90.4763 28.55 90.8863 29.48 91.2063 30.64C91.2863 30.9 91.3463 31.33 91.3863 31.93C91.4463 32.51 91.4863 33.17 91.5063 33.91C91.5263 34.63 91.5363 35.39 91.5363 36.19C91.5563 36.97 91.5663 37.7 91.5663 38.38C91.5663 39.04 91.5663 39.6 91.5663 40.06C91.5863 40.52 91.6063 40.78 91.6263 40.84C91.6463 41.18 91.8463 41.53 92.2263 41.89C92.6263 42.23 93.0563 42.62 93.5163 43.06C93.9763 43.5 94.3863 44 94.7463 44.56C95.1263 45.1 95.3063 45.74 95.2863 46.48C95.2463 47.06 95.1763 47.58 95.0763 48.04C94.9763 48.5 94.7863 48.94 94.5063 49.36C93.9263 50.26 93.2763 50.93 92.5563 51.37C91.8563 51.79 91.1263 52 90.3663 52C89.2063 52 88.0863 51.52 87.0063 50.56C86.3863 49.98 85.9563 49.3 85.7163 48.52C85.4963 47.72 85.4363 46.93 85.5363 46.15C85.6363 45.37 85.8863 44.66 86.2863 44.02C86.7063 43.38 87.2263 42.92 87.8463 42.64C88.3063 42.44 88.6763 42.24 88.9563 42.04C89.2363 41.82 89.4463 41.62 89.5863 41.44C89.7463 41.26 89.8463 41.09 89.8863 40.93C89.9463 40.77 89.9863 40.64 90.0063 40.54V40.36C89.9663 39.76 89.9763 39.01 90.0363 38.11C90.1163 37.19 90.1463 36.23 90.1263 35.23C90.1263 34.23 90.0363 33.25 89.8563 32.29C89.6963 31.31 89.3663 30.46 88.8663 29.74C88.4863 29.2 88.0863 28.75 87.6663 28.39C87.2663 28.03 86.8463 27.69 86.4063 27.37C85.9663 27.03 85.5163 26.69 85.0563 26.35C84.5963 26.01 84.1363 25.59 83.6763 25.09C83.2163 24.59 82.7463 23.98 82.2663 23.26C81.8063 22.54 81.3463 21.64 80.8863 20.56C80.8463 20.88 80.8363 21.4 80.8563 22.12C80.8763 22.84 80.9063 23.63 80.9463 24.49C80.9863 25.33 81.0163 26.18 81.0363 27.04C81.0563 27.9 81.0463 28.62 81.0063 29.2C81.0063 29.74 81.0163 30.54 81.0363 31.6C81.0763 32.66 81.1163 33.91 81.1563 35.35C81.1963 36.79 81.2363 38.38 81.2763 40.12C81.3363 41.86 81.3963 43.67 81.4563 45.55C81.5163 47.43 81.5663 49.35 81.6063 51.31C81.6663 53.27 81.7163 55.18 81.7563 57.04C81.7963 58.9 81.8263 60.68 81.8463 62.38C81.8863 64.08 81.9063 65.62 81.9063 67C81.9263 69.06 81.9563 71.01 81.9963 72.85C82.0363 74.69 81.9863 76.3 81.8463 77.68C81.7263 79.06 81.4763 80.16 81.0963 80.98C80.7163 81.8 80.1263 82.22 79.3263 82.24C78.7863 82.28 78.3563 81.99 78.0363 81.37C77.7363 80.77 77.5063 79.95 77.3463 78.91C77.1863 77.87 77.0863 76.66 77.0463 75.28C77.0063 73.92 76.9963 72.5 77.0163 71.02C77.0363 69.54 77.0563 68.05 77.0763 66.55C77.1163 65.07 77.1263 63.7 77.1063 62.44C77.0863 61.16 77.0563 59.82 77.0163 58.42C76.9963 57.02 76.9663 55.63 76.9263 54.25C76.8863 52.89 76.8363 51.58 76.7763 50.32C76.7163 49.06 76.6363 47.93 76.5363 46.93C76.4563 45.93 76.3463 45.09 76.2063 44.41C76.0863 43.73 75.9463 43.3 75.7863 43.12C75.6663 43 75.5263 42.94 75.3663 42.94C75.0663 42.94 74.7363 43.09 74.3763 43.39C74.0363 43.69 73.7163 44.05 73.4163 44.47C73.1363 44.87 72.9063 45.28 72.7263 45.7C72.5463 46.1 72.4863 46.42 72.5463 46.66C72.6063 46.8 72.7063 46.92 72.8463 47.02C73.0063 47.1 73.1663 47.18 73.3263 47.26C73.4863 47.34 73.6363 47.42 73.7763 47.5C73.9363 47.58 74.0463 47.68 74.1063 47.8C74.1863 47.98 74.1863 48.15 74.1063 48.31C74.0263 48.45 73.8963 48.58 73.7163 48.7C73.5563 48.82 73.3663 48.91 73.1463 48.97C72.9463 49.03 72.7463 49.06 72.5463 49.06C72.2863 49.06 72.1063 49.02 72.0063 48.94ZM87.0063 46.48C87.0263 46.98 87.1363 47.47 87.3363 47.95C87.5363 48.43 87.7963 48.86 88.1163 49.24C88.4363 49.62 88.7863 49.92 89.1663 50.14C89.5663 50.34 89.9663 50.42 90.3663 50.38C90.9863 50.36 91.5463 50.18 92.0463 49.84C92.5463 49.48 92.9463 49.05 93.2463 48.55C93.5463 48.03 93.7163 47.47 93.7563 46.87C93.7963 46.27 93.6663 45.7 93.3663 45.16C93.1463 44.8 92.9063 44.49 92.6463 44.23C92.4063 43.95 92.1663 43.7 91.9263 43.48C91.6863 43.26 91.4563 43.04 91.2363 42.82C91.0163 42.6 90.8263 42.36 90.6663 42.1C90.5063 42.4 90.2163 42.66 89.7963 42.88C89.3963 43.1 88.9863 43.35 88.5663 43.63C88.1463 43.91 87.7763 44.27 87.4563 44.71C87.1363 45.15 86.9863 45.74 87.0063 46.48ZM100.921 50.02C101.201 49.98 101.351 50.05 101.371 50.23C101.391 50.41 101.331 50.62 101.191 50.86C101.051 51.1 100.851 51.32 100.591 51.52C100.331 51.72 100.051 51.82 99.7514 51.82C99.5314 51.82 99.3114 51.76 99.0914 51.64C98.8914 51.52 98.7014 51.3 98.5214 50.98C98.3014 50.66 98.1014 50.26 97.9214 49.78C97.7414 49.28 97.6014 48.74 97.5014 48.16C97.4214 47.58 97.4014 46.99 97.4414 46.39C97.5014 45.77 97.6614 45.18 97.9214 44.62C98.4014 43.58 99.0214 42.81 99.7814 42.31C100.541 41.81 101.321 41.56 102.121 41.56C102.721 41.56 103.321 41.7 103.921 41.98C104.481 42.26 104.951 42.63 105.331 43.09C105.711 43.53 106.011 44.03 106.231 44.59C106.451 45.15 106.591 45.74 106.651 46.36C106.711 46.96 106.701 47.56 106.621 48.16C106.581 48.62 106.461 49.07 106.261 49.51C106.081 49.95 105.851 50.34 105.571 50.68C105.291 51.02 104.961 51.3 104.581 51.52C104.221 51.72 103.841 51.82 103.441 51.82C103.221 51.8 103.101 51.77 103.081 51.73C103.061 51.69 103.081 51.64 103.141 51.58C103.221 51.5 103.331 51.41 103.471 51.31C103.611 51.19 103.741 51.06 103.861 50.92C104.261 50.46 104.581 49.91 104.821 49.27C105.061 48.61 105.181 47.93 105.181 47.23C105.201 46.53 105.081 45.84 104.821 45.16C104.561 44.48 104.121 43.9 103.501 43.42C103.061 43.14 102.611 43 102.151 43C101.391 43 100.641 43.34 99.9014 44.02C99.6414 44.28 99.4214 44.62 99.2414 45.04C99.0814 45.44 98.9714 45.87 98.9114 46.33C98.8514 46.79 98.8414 47.26 98.8814 47.74C98.9214 48.2 99.0214 48.61 99.1814 48.97C99.3414 49.33 99.5614 49.61 99.8414 49.81C100.141 50.01 100.501 50.08 100.921 50.02Z" fill="black"/>
</svg>
