<svg width="36" height="23" viewBox="0 0 36 23" fill="none" xmlns="http://www.w3.org/2000/svg">
<path d="M33.2188 7.08082L35.8256 4.49476H30.5429C27.5834 2.08848 22.6672 0.083252 18.1105 0.083252C13.5468 0.083252 8.67204 2.08848 5.71259 4.49476H0.416016L3.02282 7.08082C1.41172 8.685 0.416016 10.9046 0.416016 13.3593C0.416016 18.2548 4.38499 22.2238 9.28052 22.2238C11.5278 22.2238 13.5814 21.3871 15.1441 20.0042L18.145 22.2099L21.1114 20.0526L21.0768 19.9696C22.6464 21.3664 24.707 22.2169 26.975 22.2169C31.8705 22.2169 35.8395 18.2479 35.8395 13.3524C35.8326 10.9046 34.8299 8.685 33.2188 7.08082ZM25.8617 4.56391C21.6646 5.08942 18.3732 8.54671 18.1243 12.8268C17.8684 8.5398 14.5702 5.07559 10.3592 4.56391C12.4751 3.0427 15.1718 2.29592 18.1105 2.29592C21.0492 2.29592 23.7458 3.0427 25.8617 4.56391ZM9.28052 20.0111C5.60196 20.0111 2.62868 17.0309 2.62868 13.3593C2.62868 9.68762 5.60887 6.70743 9.28052 6.70743C12.9522 6.70743 15.9324 9.68762 15.9324 13.3593C15.9254 17.0309 12.9522 20.0111 9.28052 20.0111ZM26.9819 20.0111C23.3102 20.0111 20.33 17.0309 20.33 13.3593C20.33 9.68762 23.3102 6.70743 26.9819 6.70743C30.6535 6.70743 33.6337 9.68762 33.6337 13.3593C33.6268 17.0309 30.6535 20.0111 26.9819 20.0111Z" fill="white"/>
</svg>
