<svg width="24" height="23" viewBox="0 0 24 23" fill="none" xmlns="http://www.w3.org/2000/svg">
<path d="M21.7965 0.083252H2.65592C2.17262 0.0837999 1.70927 0.276032 1.36753 0.617775C1.02579 0.959519 0.833556 1.42286 0.833008 1.90616V21.0467C0.833561 21.53 1.02579 21.9934 1.36754 22.3351C1.70928 22.6768 2.17262 22.8691 2.65592 22.8696H21.7965C22.2798 22.8691 22.7431 22.6768 23.0849 22.3351C23.4266 21.9934 23.6188 21.53 23.6194 21.0467V1.90616C23.6188 1.42286 23.4266 0.959519 23.0849 0.617775C22.7431 0.276032 22.2798 0.0837999 21.7965 0.083252ZM8.58038 16.9453C8.58038 17.187 8.48435 17.4188 8.31342 17.5898C8.14249 17.7607 7.91065 17.8567 7.66892 17.8567C7.42719 17.8567 7.19536 17.7607 7.02443 17.5898C6.85349 17.4188 6.75747 17.187 6.75747 16.9453V9.65364C6.75747 9.41191 6.85349 9.18008 7.02443 9.00915C7.19536 8.83822 7.42719 8.74219 7.66892 8.74219C7.91065 8.74219 8.14249 8.83822 8.31342 9.00915C8.48435 9.18008 8.58038 9.41191 8.58038 9.65364V16.9453ZM7.66892 7.37489C7.39852 7.37489 7.13419 7.29471 6.90936 7.14448C6.68452 6.99425 6.50929 6.78073 6.40581 6.53091C6.30233 6.28109 6.27526 6.00619 6.32801 5.74099C6.38076 5.47578 6.51097 5.23217 6.70218 5.04097C6.89338 4.84976 7.13699 4.71955 7.4022 4.6668C7.6674 4.61404 7.9423 4.64112 8.19212 4.7446C8.44194 4.84808 8.65546 5.02331 8.80569 5.24814C8.95592 5.47298 9.0361 5.73731 9.0361 6.00771C9.0361 6.37031 8.89206 6.71806 8.63567 6.97445C8.37927 7.23085 8.03152 7.37489 7.66892 7.37489ZM18.6064 16.9453C18.6064 17.187 18.5104 17.4188 18.3394 17.5898C18.1685 17.7607 17.9367 17.8567 17.6949 17.8567C17.4532 17.8567 17.2214 17.7607 17.0504 17.5898C16.8795 17.4188 16.7835 17.187 16.7835 16.9453V12.8437C16.7835 12.2394 16.5434 11.6598 16.1161 11.2325C15.6887 10.8052 15.1092 10.5651 14.5048 10.5651C13.9005 10.5651 13.3209 10.8052 12.8936 11.2325C12.4663 11.6598 12.2262 12.2394 12.2262 12.8437V16.9453C12.2262 17.187 12.1302 17.4188 11.9592 17.5898C11.7883 17.7607 11.5565 17.8567 11.3147 17.8567C11.073 17.8567 10.8412 17.7607 10.6702 17.5898C10.4993 17.4188 10.4033 17.187 10.4033 16.9453V9.65364C10.4032 9.42959 10.4857 9.21337 10.635 9.04629C10.7842 8.8792 10.9898 8.77298 11.2125 8.74791C11.4351 8.72284 11.6592 8.78068 11.8419 8.91038C12.0246 9.04008 12.1531 9.23255 12.2028 9.45101C12.8192 9.03212 13.5382 8.78919 14.2823 8.74835C15.0264 8.70751 15.7676 8.87029 16.4262 9.2192C17.0847 9.56811 17.6357 10.0899 18.0198 10.7286C18.404 11.3672 18.6068 12.0985 18.6064 12.8437V16.9453Z" fill="white"/>
</svg>
